<?xml version="1.0" encoding="utf-8"?>
<!-- Generator: Adobe Illustrator 21.0.0, SVG Export Plug-In . SVG Version: 6.00 Build 0)  -->
<svg version="1.1" id="Layer_1" xmlns="http://www.w3.org/2000/svg" xmlns:xlink="http://www.w3.org/1999/xlink" x="0px" y="0px"
	 viewBox="0 0 405.8 131.2" style="enable-background:new 0 0 405.8 131.2;" xml:space="preserve">
<style type="text/css">
	.st0{fill:#FFFFFF;}
	.st1{fill:#AFAFAF;}
</style>
<g>
	<rect x="93.2" y="0.3" class="st0" width="13" height="25.2"/>
	<path class="st1" d="M220.4,35.3L153.7,2.5c0,0-3.6-2.2-8.7-2.2c0,0,0,0,0,0s0,0,0,0c-5.1,0-8.7,2.2-8.7,2.2L69.6,35.3
		c0,0-4.9,2.2-4.9,6.8c0,4.6,7.1,10.7,24,5.2L145,20.1l0-0.1l0,0.1l56.3,27.3c16.9,5.5,24-0.5,24-5.2
		C225.4,37.5,220.4,35.3,220.4,35.3z"/>
</g>
<g>
	<path class="st0" d="M45,32c-5.1-4.7-12.8-7-23-7C14.9,25,8.2,25.5,2,26.6l-0.7,0.1v82.7h12V76.7c2.4,0.5,5.1,0.5,7.5,0.5
		c10.7,0,19.6-3.3,25-9.3c4.2-4.5,6.4-10.6,6.4-18.1C52.2,42.5,49.6,36.2,45,32z M21,67c-3.2,0-5.7-0.2-7.7-0.7V35.7
		c2-0.4,5.2-0.7,8.9-0.7c11.6,0,18,5.4,18,15.3C40.3,60.9,33.3,67,21,67z"/>
	<path class="st0" d="M57.2,87.7c0.3,8.8,7,12.6,14.6,12.6c5.5,0,9.5-0.8,13.1-2.2l1.7,8.5c-4.1,1.7-9.7,3-16.5,3
		c-15.3,0-24.4-9.7-24.4-24.5c0-13.5,8-26.1,23.1-26.1c15.3,0,20.4,13,20.4,23.6c0,2.3-0.2,4.1-0.4,5.2L57.2,87.7L57.2,87.7z
		 M78,79.1c0.1-4.5-1.8-11.9-9.8-11.9c-7.4,0-10.5,6.9-11,11.9H78z"/>
	<path class="st0" d="M93.3,74.4c0-5.6-0.1-10.3-0.4-14.5h10.5l0.6,7.3h0.3c2-3.8,7.2-8.4,15-8.4c8.2,0,16.8,5.5,16.8,20.8v28.8
		h-11.9V81.1c0-7-2.5-12.3-9-12.3c-4.8,0-8.1,3.5-9.3,7.2c-0.4,1.1-0.5,2.6-0.5,4v28.5h-12V74.4z"/>
	<path class="st0" d="M141.7,74.4c0-5.6-0.1-10.3-0.4-14.5h10.5l0.6,7.3h0.3c2-3.8,7.2-8.4,15-8.4c8.2,0,16.8,5.5,16.8,20.8v28.8
		h-11.9V81.1c0-7-2.5-12.3-9-12.3c-4.8,0-8.1,3.5-9.3,7.2c-0.4,1.1-0.5,2.6-0.5,4v28.5h-12V74.4z"/>
	<path class="st0" d="M197.3,60l8.5,26c1,3,1.9,6.7,2.6,9.5h0.3c0.8-2.8,1.7-6.4,2.5-9.6l7.4-25.9h12.8l-11.8,33.1
		c-6.5,18.1-10.9,26.2-16.5,31.2c-4.7,4.3-9.5,5.9-12.5,6.3l-2.7-10.4c2-0.5,4.6-1.6,7-3.4c2.2-1.5,4.9-4.4,6.5-7.7
		c0.5-0.9,0.8-1.6,0.8-2.2c0-0.5-0.1-1.2-0.7-2.4L184.2,60L197.3,60L197.3,60z"/>
	<path class="st0" d="M288.3,81.1c-0.4-8.7-0.9-19.1-0.8-28.2h-0.3c-2.1,8.2-4.9,17.3-7.8,25.7l-9.5,29.1h-9.2L252,79
		c-2.5-8.6-4.9-17.7-6.6-26.1h-0.2c-0.3,8.8-0.7,19.4-1.2,28.6l-1.5,27h-11.2l4.4-67.2h15.7l8.5,27c2.3,7.9,4.4,15.9,6,23.3h0.3
		c1.7-7.3,4-15.6,6.5-23.4l9-26.9h15.5l3.8,67.2h-11.6L288.3,81.1z"/>
	<path class="st0" d="M334,108.5l-0.8-5.4h-0.3c-2.9,3.8-7.9,6.5-14,6.5c-9.5,0-14.8-7.1-14.8-14.5c0-12.3,10.6-18.4,28-18.3V76
		c0-3.2-1.3-8.5-9.6-8.5c-4.7,0-9.5,1.5-12.7,3.6l-2.3-8c3.5-2.2,9.6-4.3,17.1-4.3c15.1,0,19.5,9.9,19.5,20.4v17.5
		c0,4.4,0.2,8.7,0.7,11.7L334,108.5L334,108.5L334,108.5z M332.4,84.8c-8.4-0.2-16.5,1.7-16.5,9.1c0,4.8,3,7,6.8,7
		c4.8,0,8.2-3.2,9.3-6.7c0.3-0.9,0.4-1.9,0.4-2.7L332.4,84.8L332.4,84.8z"/>
	<path class="st0" d="M385.6,107.1c-2.5,1.2-7.5,2.5-13.4,2.5c-14.8,0-24.4-9.7-24.4-24.7c0-14.6,9.7-25.9,26.3-25.9
		c4.4,0,8.8,1,11.6,2.3l-2.1,9.2c-1.9-0.9-4.8-1.9-9-1.9c-9.1,0-14.6,6.9-14.5,15.8c0,10,6.3,15.7,14.5,15.7c4.2,0,7.1-0.9,9.4-1.9
		L385.6,107.1z"/>
</g>
<g>
	<g>
		<g>
			<path class="st0" d="M392.7,44.4h3.5c2.1,0,3.8,1,3.8,3.3c0,1.5-0.8,2.5-2.1,3l2.4,4.1h-1.9l-2.3-3.9h-1.9v3.9h-1.6L392.7,44.4
				L392.7,44.4z M396.1,49.6c1.4,0,2.2-0.6,2.2-1.9c0-1.3-0.8-1.9-2.2-1.9h-1.8v3.8H396.1z"/>
		</g>
	</g>
	<g>
		<path class="st0" d="M396,59c-5.1,0-9.2-4.1-9.2-9.2s4.1-9.2,9.2-9.2c5.1,0,9.2,4.1,9.2,9.2C405.1,54.9,401,59,396,59z M396,42.3
			c-4.2,0-7.5,3.4-7.5,7.5s3.4,7.5,7.5,7.5c4.2,0,7.5-3.4,7.5-7.5C403.5,45.7,400.1,42.3,396,42.3z"/>
	</g>
</g>
</svg>
